<svg width="60" height="63" viewBox="0 0 60 63" fill="none" xmlns="http://www.w3.org/2000/svg">
<g clip-path="url(#clip0_191_676)">
<path d="M36.9961 62.4321V62.3008" stroke="#9EF471" stroke-miterlimit="10"/>
<path d="M36.9961 62.4321V62.3201" stroke="#9EF471" stroke-miterlimit="10"/>
<path d="M58.5716 19.8468L46.9201 9.2276C46.6262 8.9581 46.1828 8.94235 45.8734 9.1926C44.3936 10.3879 42.2382 10.3616 40.7824 9.0351C39.3284 7.70858 39.0637 5.53154 40.0674 3.90052C40.2771 3.55926 40.2135 3.113 39.9179 2.84525L37.7437 0.862469C37.0596 0.239459 36.0077 0.29896 35.3941 0.995471L19.2171 19.397C18.9645 19.684 18.9387 20.1093 19.1552 20.4243C19.872 21.4656 19.8204 22.9093 18.9507 23.8981C18.081 24.8869 16.6785 25.0986 15.5819 24.4879C15.2519 24.3041 14.8377 24.3776 14.5868 24.6646L0.528998 40.6529C-0.0519443 41.3144 0.00305617 42.3294 0.652749 42.9226L20.2398 60.7729C20.2398 61.6899 20.9685 62.432 21.8692 62.432H53.3861V60.6819H24.9045L34.851 49.368L41.9581 41.2829L52.3343 29.4807C52.5818 29.2007 52.6299 28.7824 52.4305 28.4657C51.8977 27.6257 51.9578 26.4969 52.6436 25.7181C53.3311 24.9376 54.426 24.7521 55.3043 25.1966C55.6343 25.3646 56.0382 25.2684 56.284 24.9884L58.7023 22.2373C59.3142 21.5408 59.2574 20.4698 58.5716 19.8468ZM13.2272 43.8817C12.6532 44.3524 11.823 44.3997 11.2008 43.9954C10.173 43.3304 10.0922 41.8516 11.041 41.0746C11.6167 40.6039 12.4469 40.5566 13.0691 40.9609C14.0969 41.6259 14.1777 43.1047 13.2272 43.8817ZM18.2941 30.676C19.1484 29.9217 20.4254 29.8499 21.3553 30.5027C22.7182 31.4635 22.8265 33.4515 21.5753 34.5593C20.7228 35.3135 19.444 35.3853 18.5159 34.7308C17.1512 33.7718 17.0429 31.782 18.2941 30.676ZM25.4889 53.5313C24.2961 54.6443 22.4553 54.7476 21.1473 53.7746C19.3804 52.4603 19.2395 49.8493 20.8517 48.3425C22.0462 47.2295 23.887 47.1262 25.195 48.0992C26.9601 49.4135 27.1028 52.0245 25.4889 53.5313ZM28.3248 14.8434C29.3561 13.3262 31.4908 13.2054 32.6802 14.5984C33.4914 15.5487 33.5688 16.9715 32.8658 18.0057C31.8346 19.5248 29.6999 19.6455 28.5088 18.2525C27.6992 17.3022 27.6219 15.8795 28.3248 14.8434ZM29.2719 26.7856C28.2784 26.1416 28.2011 24.7136 29.1189 23.9611C29.9009 23.3223 31.1625 23.4903 31.6799 24.5386C31.8878 24.9621 31.9171 25.4626 31.7607 25.9071C31.3688 27.0184 30.1227 27.3369 29.2719 26.7856ZM35.0607 38.5423C34.2082 39.2983 32.9294 39.3701 31.9996 38.7156C30.6366 37.7548 30.5283 35.7685 31.7796 34.6608C32.6321 33.9048 33.9108 33.833 34.839 34.4875C36.2037 35.4483 36.3119 37.4346 35.0607 38.5423ZM48.5513 22.4438C47.3344 24.1378 44.9195 24.2726 43.5273 22.7256C42.496 21.5811 42.3998 19.817 43.3004 18.5623C44.5173 16.8682 46.9322 16.7317 48.3244 18.2788C49.3556 19.425 49.4519 21.189 48.5513 22.4438Z" fill="#364015"/>
<path d="M2.27344 60.682V62.432H6.26613V60.682H2.27344ZM8.26161 60.682V62.432H12.2543V60.682H8.26161ZM14.2515 60.682V62.432H18.2442V60.682H14.2515Z" fill="#364015"/>
</g>
<defs>
<clipPath id="clip0_191_676">
<rect width="59" height="62" fill="white" transform="translate(0.126953 0.432068)"/>
</clipPath>
</defs>
</svg>
