<svg width="140" height="175" viewBox="0 0 140 175" fill="none" xmlns="http://www.w3.org/2000/svg">
<g clip-path="url(#clip0_171_17)">
<path d="M93.6837 0.611816C93.6837 0.611816 30.0197 10.6599 30.0197 84.6811C30.0197 84.6811 15.3669 76.4752 15.3669 61.068C15.3669 61.068 -33.4758 124.371 42.9883 170.928C42.9883 170.928 32.2092 161.214 32.2092 140.113C32.2092 119.012 66.2307 119.347 66.2307 64.7523C66.2307 64.7523 84.7572 84.1787 84.7572 104.61C84.7572 125.041 78.1887 139.882 78.1887 139.882C78.1887 139.882 92.5047 135.424 92.5047 118.677C92.5047 118.677 102.61 124.706 102.61 147.147C102.61 169.588 81.7256 174.612 81.7256 174.612C81.7256 174.612 139.05 166.684 134.274 116.333C129.221 63.0777 140 54.0343 140 54.0343C140 54.0343 108.168 60.3982 108.168 87.6118C108.168 87.6118 109.01 68.1017 99.2416 52.6946C89.4731 37.2875 82.7362 21.2105 93.6837 0.611816Z" fill="#FFB600"/>
</g>
<defs>
<clipPath id="clip0_171_17">
<rect width="140" height="174" fill="white" transform="translate(0 0.611816)"/>
</clipPath>
</defs>
</svg>
