<svg width="18" height="19" viewBox="0 0 18 19" fill="none" xmlns="http://www.w3.org/2000/svg">
<circle cx="9.03998" cy="9.51884" r="8.80366" fill="#364015"/>
<path d="M8.93516 14.2138C8.92516 14.2538 8.92016 14.3138 8.92016 14.3938C8.92016 14.5038 8.94016 14.5888 8.98016 14.6488C9.03016 14.7088 9.08516 14.7388 9.14516 14.7388C9.34516 14.7388 9.60516 14.5738 9.92516 14.2438L10.1202 14.5738C9.99016 14.7738 9.78016 14.9888 9.49016 15.2188C9.20016 15.4388 8.88016 15.5488 8.53016 15.5488C8.26016 15.5488 8.04516 15.4788 7.88516 15.3388C7.73516 15.1988 7.67016 14.9738 7.69016 14.6638C7.71016 14.4038 7.77516 13.8788 7.88516 13.0888C8.00516 12.2988 8.09516 11.7038 8.15516 11.3038L8.63516 8.0188L7.66016 7.7038L7.75016 7.2238L9.65516 6.9088L9.95516 7.0588L8.93516 14.2138ZM9.53516 5.1688C9.35516 5.1688 9.19516 5.1038 9.05516 4.9738C8.92516 4.8338 8.86016 4.6588 8.86016 4.4488C8.86016 4.1888 8.95016 3.9638 9.13016 3.7738C9.32016 3.5838 9.52016 3.4888 9.73016 3.4888C9.94016 3.4888 10.1052 3.5538 10.2252 3.6838C10.3552 3.8138 10.4202 3.9838 10.4202 4.1938C10.4202 4.4638 10.3302 4.6938 10.1502 4.8838C9.98016 5.0738 9.77516 5.1688 9.53516 5.1688Z" fill="#F1EEE9"/>
</svg>
